# xmcd CD database file
#
# Track frame offsets:
#	150
#	27646
#	49938
#	75471
#	100908
#	124479
#	138130
#	166497
#	187323
#	215946
#	236028
#
# Disc length: 3418 seconds
#
# Revision: 0
# Processed by: cddbd v1.4PL0 Copyright (c) Steve Scherf et al.
# Submitted via: CDex 1.50beta9
#
DISCID=a80d580b
DTITLE=Enrico Pieranunzi - Don't Forget The Poet
DYEAR=1999
DGENRE=Jazz
TTITLE0=Persona
TTITLE1=Don't Forget The Poet
TTITLE2=Child Of The Real And Ideal
TTITLE3=Coralie
TTITLE4=Tune's Passage
TTITLE5=Newsbreak
TTITLE6=A Nameless Gate
TTITLE7=With My Heart in A Song
TTITLE8=Ir Speaks For Itself
TTITLE9=Hindsight
TTITLE10=Seaward
EXTD=YEAR: 1999
EXTT0=
EXTT1=
EXTT2=
EXTT3=
EXTT4=
EXTT5=
EXTT6=
EXTT7=
EXTT8=
EXTT9=
EXTT10=
PLAYORDER=
